# xmcd
#
# Track frame offsets:
#	150
#	35309
#	67709
#	102222
#	135876
#	172063
#	207613
#	239232
#	272443
#
# Disc length: 4007 seconds
#
# Revision: 1
# Processed by: cddbd v1.5.2PL0 Copyright (c) Steve Scherf et al.
# Submitted via: audiograbber 1.83.01
#
DISCID=7a0fa509
DTITLE=Nano Records - Compiled by Regan - Origin Four - Disc Left
DYEAR=1900
DGENRE=Psytrance
TTITLE0=Atruism - Gratitude
TTITLE1=Avalon vs Burn in Noise - Time and Space
TTITLE2=AMD - March On
TTITLE3=Tristan and Magik - Wonderizer
TTITLE4=Zen Mechanics - Hallucinations (Circuit Breakers RMX)
TTITLE5=Tristan - Deep Mind (2012 Delay MIx)
TTITLE6=Headroom - Rebirth Control
TTITLE7=Allaby - Glade (Flip-Flop RMX)
TTITLE8=Hemi-Sync - Hemirhythms
EXTD=
EXTT0=
EXTT1=
EXTT2=
EXTT3=
EXTT4=
EXTT5=
EXTT6=
EXTT7=
EXTT8=
PLAYORDER=
